<svg width="32" height="32" viewBox="0 0 32 32" fill="none" xmlns="http://www.w3.org/2000/svg">
<g id="haX logo">
<path d="M11.1304 16C11.1304 18.6894 13.3106 20.8696 16 20.8696C18.6894 20.8696 20.8696 18.6894 20.8696 16C20.8696 13.3106 18.6894 11.1304 16 11.1304C13.3106 11.1304 11.1304 13.3106 11.1304 16Z" fill="black"/>
<path d="M16 11.1304C14.9651 11.1304 13.9889 10.8794 13.1289 10.4348C11.9754 11.0311 11.0311 11.9754 10.4348 13.1289C10.8794 13.9889 11.1304 14.9651 11.1304 16C11.1304 13.3106 13.3106 11.1304 16 11.1304Z" fill="black"/>
<path d="M10.4348 7.74066C9.8385 8.89414 8.89414 9.8385 7.74066 10.4348C8.89414 11.0311 9.8385 11.9754 10.4348 13.1289C11.0311 11.9754 11.9754 11.0311 13.1289 10.4348C11.9754 9.8385 11.0311 8.89414 10.4348 7.74066Z" fill="black"/>
<path d="M9.73913 4.86956C9.73913 7.55895 7.55895 9.73913 4.86957 9.73913C5.90444 9.73913 6.88067 9.99021 7.74066 10.4348C8.89414 9.8385 9.8385 8.89414 10.4348 7.74066C9.99021 6.88067 9.73913 5.90444 9.73913 4.86956Z" fill="black"/>
<path d="M3.60184e-06 4.86956C3.48429e-06 7.55895 2.18018 9.73913 4.86957 9.73913C7.55895 9.73913 9.73913 7.55895 9.73913 4.86956C9.73913 2.18018 7.55895 -1.06835e-06 4.86957 -1.18591e-06C2.18018 -1.30347e-06 3.7194e-06 2.18018 3.60184e-06 4.86956Z" fill="black"/>
<path d="M22.2609 27.1304C22.2609 29.8198 24.441 32 27.1304 32C29.8198 32 32 29.8198 32 27.1304C32 24.441 29.8198 22.2609 27.1304 22.2609C24.441 22.2609 22.2609 24.441 22.2609 27.1304Z" fill="black"/>
<path d="M24.2593 21.5652C23.1059 22.1615 22.1615 23.1059 21.5652 24.2593C22.0098 25.1193 22.2609 26.0956 22.2609 27.1304C22.2609 24.441 24.441 22.2609 27.1304 22.2609C26.0956 22.2609 25.1193 22.0098 24.2593 21.5652Z" fill="black"/>
<path d="M21.5652 18.8711C20.9689 20.0246 20.0246 20.9689 18.8711 21.5652C20.0246 22.1615 20.9689 23.1059 21.5652 24.2593C22.1615 23.1059 23.1059 22.1615 24.2593 21.5652C23.1059 20.9689 22.1615 20.0246 21.5652 18.8711Z" fill="black"/>
<path d="M20.8696 16C20.8696 18.6894 18.6894 20.8696 16 20.8696C17.0349 20.8696 18.0111 21.1206 18.8711 21.5652C20.0246 20.9689 20.9689 20.0246 21.5652 18.8711C21.1206 18.0111 20.8696 17.0349 20.8696 16Z" fill="black"/>
<path d="M22.2609 4.86956C22.2609 7.55895 24.441 9.73913 27.1304 9.73913C29.8198 9.73913 32 7.55895 32 4.86957C32 2.18018 29.8198 -9.52986e-08 27.1304 -2.12855e-07C24.441 -3.30412e-07 22.2609 2.18018 22.2609 4.86956Z" fill="black"/>
<path d="M2.62879e-06 27.1304C2.51123e-06 29.8198 2.18018 32 4.86957 32C7.55895 32 9.73913 29.8198 9.73913 27.1304C9.73913 24.441 7.55895 22.2609 4.86957 22.2609C2.18018 22.2609 2.74635e-06 24.441 2.62879e-06 27.1304Z" fill="black"/>
</g>
</svg>
