<svg width="54" height="65" viewBox="0 0 54 65" fill="none" xmlns="http://www.w3.org/2000/svg">
<path opacity="0.4" d="M47.3414 16.1775L27.0014 27.945L6.66138 16.1775C7.56138 14.5125 8.86638 13.05 10.3289 12.24L22.3439 5.58C24.9089 4.14 29.0939 4.14 31.6589 5.58L43.6739 12.24C45.1364 13.05 46.4414 14.5125 47.3414 16.1775Z" fill="#A256EF"/>
<path opacity="0.6" d="M27.0014 27.9452V49.5002C25.3139 49.5002 23.6264 49.1402 22.3439 48.4202L10.3289 41.7602C7.60641 40.2527 5.37891 36.4727 5.37891 33.3677V20.6327C5.37891 19.1927 5.87391 17.6177 6.66141 16.1777L27.0014 27.9452Z" fill="#A256EF"/>
<path d="M48.6239 20.6327V33.3677C48.6239 36.4727 46.3964 40.2527 43.6739 41.7602L31.6589 48.4202C30.3764 49.1402 28.6889 49.5002 27.0014 49.5002V27.9452L47.3414 16.1777C48.1289 17.6177 48.6239 19.1927 48.6239 20.6327Z" fill="#A256EF"/>
<path d="M9.08651 53.7273H10.4182L12.7335 59.3807H12.8188L15.1341 53.7273H16.4658V61H15.4217V55.7372H15.3543L13.2094 60.9893H12.3429L10.198 55.7337H10.1305V61H9.08651V53.7273ZM20.1367 61.1101C19.5993 61.1101 19.1365 60.9953 18.7482 60.7656C18.3624 60.5336 18.0641 60.2081 17.8534 59.7891C17.645 59.3677 17.5409 58.8741 17.5409 58.3082C17.5409 57.7495 17.645 57.2571 17.8534 56.831C18.0641 56.4048 18.3576 56.0722 18.734 55.8331C19.1128 55.594 19.5555 55.4744 20.0622 55.4744C20.3699 55.4744 20.6682 55.5253 20.9571 55.6271C21.2459 55.7289 21.5051 55.8887 21.7348 56.1065C21.9644 56.3243 22.1455 56.6072 22.2781 56.9553C22.4107 57.3009 22.4769 57.7211 22.4769 58.2159V58.5923H18.141V57.7969H21.4365C21.4365 57.5175 21.3796 57.2701 21.266 57.0547C21.1524 56.8369 20.9926 56.6652 20.7866 56.5398C20.583 56.4143 20.3439 56.3516 20.0693 56.3516C19.771 56.3516 19.5106 56.425 19.288 56.5717C19.0678 56.7161 18.8974 56.9055 18.7767 57.1399C18.6583 57.3719 18.5991 57.6241 18.5991 57.8963V58.5178C18.5991 58.8823 18.663 59.1925 18.7909 59.4482C18.9211 59.7038 19.1022 59.8991 19.3342 60.0341C19.5662 60.1667 19.8373 60.233 20.1474 60.233C20.3486 60.233 20.5321 60.2045 20.6978 60.1477C20.8635 60.0885 21.0068 60.0009 21.1275 59.8849C21.2482 59.7689 21.3406 59.6257 21.4045 59.4553L22.4095 59.6364C22.329 59.9323 22.1846 60.1915 21.9762 60.4141C21.7703 60.6342 21.511 60.8059 21.1985 60.929C20.8884 61.0497 20.5345 61.1101 20.1367 61.1101ZM23.465 61V55.5455H24.4842V56.4332H24.5517C24.6653 56.1326 24.8512 55.8982 25.1092 55.7301C25.3673 55.5597 25.6762 55.4744 26.0361 55.4744C26.4006 55.4744 26.706 55.5597 26.9522 55.7301C27.2008 55.9006 27.3843 56.1349 27.5027 56.4332H27.5595C27.6897 56.142 27.8968 55.91 28.1809 55.7372C28.465 55.562 28.8036 55.4744 29.1966 55.4744C29.6914 55.4744 30.095 55.6295 30.4075 55.9396C30.7224 56.2498 30.8798 56.7173 30.8798 57.3423V61H29.818V57.4418C29.818 57.0724 29.7174 56.8049 29.5162 56.6392C29.3149 56.4735 29.0746 56.3906 28.7953 56.3906C28.4496 56.3906 28.1809 56.4972 27.9892 56.7102C27.7974 56.9209 27.7015 57.192 27.7015 57.5234V61H26.6433V57.3743C26.6433 57.0784 26.551 56.8404 26.3663 56.6605C26.1816 56.4806 25.9414 56.3906 25.6454 56.3906C25.4442 56.3906 25.2584 56.4439 25.0879 56.5504C24.9198 56.6546 24.7837 56.8002 24.6795 56.9872C24.5777 57.1742 24.5268 57.3909 24.5268 57.6371V61H23.465ZM34.4105 61.1101C33.8991 61.1101 33.4529 60.9929 33.0717 60.7585C32.6906 60.5241 32.3946 60.1963 32.1839 59.7749C31.9732 59.3535 31.8679 58.861 31.8679 58.2976C31.8679 57.7318 31.9732 57.237 32.1839 56.8132C32.3946 56.3894 32.6906 56.0604 33.0717 55.826C33.4529 55.5916 33.8991 55.4744 34.4105 55.4744C34.9219 55.4744 35.3681 55.5916 35.7493 55.826C36.1304 56.0604 36.4264 56.3894 36.6371 56.8132C36.8478 57.237 36.9531 57.7318 36.9531 58.2976C36.9531 58.861 36.8478 59.3535 36.6371 59.7749C36.4264 60.1963 36.1304 60.5241 35.7493 60.7585C35.3681 60.9929 34.9219 61.1101 34.4105 61.1101ZM34.4141 60.2188C34.7455 60.2188 35.0201 60.1312 35.2379 59.956C35.4557 59.7808 35.6167 59.5476 35.7209 59.2564C35.8274 58.9652 35.8807 58.6444 35.8807 58.294C35.8807 57.946 35.8274 57.6264 35.7209 57.3352C35.6167 57.0417 35.4557 56.8061 35.2379 56.6286C35.0201 56.451 34.7455 56.3622 34.4141 56.3622C34.0802 56.3622 33.8033 56.451 33.5831 56.6286C33.3653 56.8061 33.2031 57.0417 33.0966 57.3352C32.9924 57.6264 32.9403 57.946 32.9403 58.294C32.9403 58.6444 32.9924 58.9652 33.0966 59.2564C33.2031 59.5476 33.3653 59.7808 33.5831 59.956C33.8033 60.1312 34.0802 60.2188 34.4141 60.2188ZM37.9483 61V55.5455H38.9746V56.4119H39.0314C39.1308 56.1184 39.306 55.8875 39.557 55.7195C39.8103 55.549 40.0967 55.4638 40.4163 55.4638C40.4826 55.4638 40.5608 55.4661 40.6507 55.4709C40.7431 55.4756 40.8153 55.4815 40.8673 55.4886V56.5043C40.8247 56.4924 40.749 56.4794 40.6401 56.4652C40.5312 56.4486 40.4223 56.4403 40.3134 56.4403C40.0624 56.4403 39.8387 56.4936 39.6422 56.6001C39.4481 56.7043 39.2942 56.8499 39.1806 57.0369C39.0669 57.2216 39.0101 57.4323 39.0101 57.669V61H37.9483ZM42.4334 63.0455C42.2748 63.0455 42.1304 63.0324 42.0001 63.0064C41.8699 62.9827 41.7729 62.9567 41.709 62.9283L41.9646 62.0582C42.1588 62.1103 42.3316 62.1328 42.4831 62.1257C42.6346 62.1186 42.7684 62.0618 42.8844 61.9553C43.0027 61.8487 43.1069 61.6747 43.1969 61.4332L43.3283 61.071L41.3325 55.5455H42.4689L43.8503 59.7784H43.9071L45.2885 55.5455H46.4284L44.1805 61.728C44.0764 62.0121 43.9438 62.2524 43.7828 62.4489C43.6218 62.6477 43.4301 62.7969 43.2075 62.8963C42.985 62.9957 42.7269 63.0455 42.4334 63.0455Z" fill="black"/>
</svg>
