<svg width="20" height="20" viewBox="0 0 20 20" fill="none" xmlns="http://www.w3.org/2000/svg">
<g id="vuesax/bold/search-status">
<g id="search-status">
<path id="Vector" d="M9.58329 1.6665C5.21663 1.6665 1.66663 5.2165 1.66663 9.58317C1.66663 13.9498 5.21663 17.4998 9.58329 17.4998C13.95 17.4998 17.5 13.9498 17.5 9.58317C17.5 5.2165 13.95 1.6665 9.58329 1.6665ZM9.58329 11.4582H7.08329C6.74163 11.4582 6.45829 11.1748 6.45829 10.8332C6.45829 10.4915 6.74163 10.2082 7.08329 10.2082H9.58329C9.92496 10.2082 10.2083 10.4915 10.2083 10.8332C10.2083 11.1748 9.92496 11.4582 9.58329 11.4582ZM12.0833 8.95817H7.08329C6.74163 8.95817 6.45829 8.67484 6.45829 8.33317C6.45829 7.9915 6.74163 7.70817 7.08329 7.70817H12.0833C12.425 7.70817 12.7083 7.9915 12.7083 8.33317C12.7083 8.67484 12.425 8.95817 12.0833 8.95817Z" fill="url(#paint0_linear_844_1068)" fill-opacity="0.8"/>
<path id="Vector_2" d="M17.7505 18.332C17.6005 18.332 17.4505 18.2737 17.3422 18.1653L15.7922 16.6153C15.5672 16.3903 15.5672 16.0237 15.7922 15.7903C16.0172 15.5653 16.3838 15.5653 16.6172 15.7903L18.1672 17.3403C18.3922 17.5653 18.3922 17.932 18.1672 18.1653C18.0505 18.2737 17.9005 18.332 17.7505 18.332Z" fill="url(#paint1_linear_844_1068)" fill-opacity="0.8"/>
</g>
</g>
<defs>
<linearGradient id="paint0_linear_844_1068" x1="2.15704" y1="9.58317" x2="17.8952" y2="14.321" gradientUnits="userSpaceOnUse">
<stop stop-color="#9B49FF"/>
<stop offset="1" stop-color="#DA94FF"/>
</linearGradient>
<linearGradient id="paint1_linear_844_1068" x1="15.7074" y1="16.9768" x2="18.4033" y2="17.789" gradientUnits="userSpaceOnUse">
<stop stop-color="#9B49FF"/>
<stop offset="1" stop-color="#DA94FF"/>
</linearGradient>
</defs>
</svg>
