<svg width="22" height="22" viewBox="0 0 22 22" fill="none" xmlns="http://www.w3.org/2000/svg">
<g id="vuesax/bulk/profile">
<g id="profile">
<path id="Vector" opacity="0.8" d="M11 1.8335C8.59837 1.8335 6.64587 3.786 6.64587 6.18766C6.64587 8.5435 8.48837 10.4502 10.89 10.5327C10.9634 10.5235 11.0367 10.5235 11.0917 10.5327C11.11 10.5327 11.1192 10.5327 11.1375 10.5327C11.1467 10.5327 11.1467 10.5327 11.1559 10.5327C13.5025 10.4502 15.345 8.5435 15.3542 6.18766C15.3542 3.786 13.4017 1.8335 11 1.8335Z" fill="url(#paint0_linear_844_655)"/>
<path id="Vector_2" d="M15.6566 12.9706C13.0991 11.2656 8.9283 11.2656 6.35246 12.9706C5.1883 13.7498 4.54663 14.804 4.54663 15.9315C4.54663 17.059 5.1883 18.104 6.3433 18.874C7.62663 19.7356 9.3133 20.1665 11 20.1665C12.6866 20.1665 14.3733 19.7356 15.6566 18.874C16.8116 18.0948 17.4533 17.0498 17.4533 15.9131C17.4441 14.7856 16.8116 13.7406 15.6566 12.9706Z" fill="url(#paint1_linear_844_655)"/>
</g>
</g>
<defs>
<linearGradient id="paint0_linear_844_655" x1="7.67038" y1="4.00829" x2="12.9139" y2="11.0497" gradientUnits="userSpaceOnUse">
<stop stop-color="#75B8FF"/>
<stop offset="1" stop-color="#1774D7"/>
</linearGradient>
<linearGradient id="paint1_linear_844_655" x1="6.06506" y1="13.8105" x2="10.2757" y2="22.413" gradientUnits="userSpaceOnUse">
<stop stop-color="#75B8FF"/>
<stop offset="1" stop-color="#1774D7"/>
</linearGradient>
</defs>
</svg>
