<svg width="28" height="28" viewBox="0 0 28 28" fill="none" xmlns="http://www.w3.org/2000/svg">
<g id="vuesax/outline/send">
<g id="send">
<path id="Vector" d="M25.3751 21.6884C25.3751 22.995 24.9318 23.8234 24.4068 24.3484C23.3801 25.375 21.1984 26.0984 16.5668 23.7884L14.5484 22.7734C14.2801 22.645 13.7201 22.645 13.4518 22.7734L11.4334 23.7884C6.80175 26.11 4.60842 25.375 3.59342 24.3484C2.56675 23.3334 1.83175 21.14 4.15342 16.52L9.14675 6.53335C10.3834 4.04835 12.1101 2.68335 14.0001 2.68335C15.8901 2.68335 17.6168 4.04835 18.8534 6.52169L23.8468 16.5084C24.9784 18.7717 25.3751 20.4517 25.3751 21.6884ZM4.37509 21.6884C4.37509 22.3184 4.52675 22.8084 4.83009 23.1117C5.67009 23.9634 7.85175 23.625 10.6401 22.225L12.6701 21.21C13.4284 20.8367 14.5718 20.8367 15.3301 21.21L17.3484 22.225C20.1484 23.625 22.3184 23.9634 23.1584 23.1117C24.0101 22.2717 23.6718 20.09 22.2718 17.29L17.2784 7.30335C16.3684 5.47169 15.1668 4.43335 13.9884 4.43335C12.8101 4.43335 11.6084 5.48335 10.6984 7.31502L5.71675 17.3017C4.83009 19.075 4.37509 20.6034 4.37509 21.6884Z" fill="#292D32"/>
<path id="Vector_2" d="M14.875 15.3533V21.6533C14.875 22.1317 14.4783 22.5283 14 22.5283C13.5217 22.5283 13.125 22.1317 13.125 21.6533V15.3533C13.125 14.875 13.5217 14.4783 14 14.4783C14.4783 14.4783 14.875 14.875 14.875 15.3533Z" fill="#292D32"/>
</g>
</g>
</svg>
